<svg width="1173" height="589" xmlns="http://www.w3.org/2000/svg" xmlns:xlink="http://www.w3.org/1999/xlink" overflow="hidden"><defs><clipPath id="clip0"><rect x="81" y="73" width="1173" height="589"/></clipPath><clipPath id="clip1"><rect x="82" y="322" width="47" height="48"/></clipPath><clipPath id="clip2"><rect x="82" y="322" width="47" height="48"/></clipPath><clipPath id="clip3"><rect x="82" y="322" width="47" height="48"/></clipPath><linearGradient x1="23.8394" y1="49.115" x2="23.1083" y2="-21.15" gradientUnits="userSpaceOnUse" spreadMethod="pad" id="fill4"><stop offset="0" stop-color="#198AB3"/><stop offset="0" stop-color="#198AB3"/><stop offset="0.09" stop-color="#22A5CB"/><stop offset="0.19" stop-color="#29BADE"/><stop offset="0.29" stop-color="#2EC9EB"/><stop offset="0.42" stop-color="#31D1F3"/><stop offset="0.62" stop-color="#32D4F5"/><stop offset="1" stop-color="#32D4F5"/></linearGradient><clipPath id="clip5"><rect x="530" y="75" width="53" height="53"/></clipPath><clipPath id="clip6"><rect x="530" y="75" width="53" height="53"/></clipPath><clipPath id="clip7"><rect x="530" y="75" width="53" height="53"/></clipPath><linearGradient x1="556.868" y1="124.635" x2="556.868" y2="77.6449" gradientUnits="userSpaceOnUse" spreadMethod="pad" id="fill8"><stop offset="0" stop-color="#FEA11B"/><stop offset="0.284" stop-color="#FEA51A"/><stop offset="0.547" stop-color="#FEB018"/><stop offset="0.8" stop-color="#FFC314"/><stop offset="1" stop-color="#FFD70F"/></linearGradient><clipPath id="clip9"><rect x="847" y="100" width="53" height="53"/></clipPath><clipPath id="clip10"><rect x="847" y="100" width="53" height="53"/></clipPath><clipPath id="clip11"><rect x="847" y="100" width="53" height="53"/></clipPath><linearGradient x1="873.868" y1="149.635" x2="873.868" y2="102.645" gradientUnits="userSpaceOnUse" spreadMethod="pad" id="fill12"><stop offset="0" stop-color="#FEA11B"/><stop offset="0.284" stop-color="#FEA51A"/><stop offset="0.547" stop-color="#FEB018"/><stop offset="0.8" stop-color="#FFC314"/><stop offset="1" stop-color="#FFD70F"/></linearGradient><clipPath id="clip13"><rect x="847" y="288" width="53" height="53"/></clipPath><clipPath id="clip14"><rect x="847" y="288" width="53" height="53"/></clipPath><clipPath id="clip15"><rect x="847" y="288" width="53" height="53"/></clipPath><linearGradient x1="873.868" y1="337.635" x2="873.868" y2="290.645" gradientUnits="userSpaceOnUse" spreadMethod="pad" id="fill16"><stop offset="0" stop-color="#FEA11B"/><stop offset="0.284" stop-color="#FEA51A"/><stop offset="0.547" stop-color="#FEB018"/><stop offset="0.8" stop-color="#FFC314"/><stop offset="1" stop-color="#FFD70F"/></linearGradient><clipPath id="clip17"><rect x="1195" y="74" width="53" height="53"/></clipPath><clipPath id="clip18"><rect x="1195" y="74" width="53" height="53"/></clipPath><clipPath id="clip19"><rect x="1195" y="74" width="53" height="53"/></clipPath><linearGradient x1="1221.87" y1="123.635" x2="1221.87" y2="76.6449" gradientUnits="userSpaceOnUse" spreadMethod="pad" id="fill20"><stop offset="0" stop-color="#FEA11B"/><stop offset="0.284" stop-color="#FEA51A"/><stop offset="0.547" stop-color="#FEB018"/><stop offset="0.8" stop-color="#FFC314"/><stop offset="1" stop-color="#FFD70F"/></linearGradient><clipPath id="clip21"><rect x="1177" y="416" width="53" height="54"/></clipPath><clipPath id="clip22"><rect x="1177" y="416" width="53" height="54"/></clipPath><clipPath id="clip23"><rect x="1177" y="416" width="53" height="54"/></clipPath><linearGradient x1="26.8683" y1="49.6346" x2="26.8683" y2="2.64486" gradientUnits="userSpaceOnUse" spreadMethod="pad" id="fill24"><stop offset="0" stop-color="#FEA11B"/><stop offset="0.284" stop-color="#FEA51A"/><stop offset="0.547" stop-color="#FEB018"/><stop offset="0.8" stop-color="#FFC314"/><stop offset="1" stop-color="#FFD70F"/></linearGradient><clipPath id="clip25"><rect x="1082" y="586" width="53" height="54"/></clipPath><clipPath id="clip26"><rect x="1082" y="586" width="53" height="54"/></clipPath><clipPath id="clip27"><rect x="1082" y="586" width="53" height="54"/></clipPath><linearGradient x1="26.5" y1="46.6223" x2="26.5" y2="17.0424" gradientUnits="userSpaceOnUse" spreadMethod="pad" id="fill28"><stop offset="0" stop-color="#32BEDD"/><stop offset="0.775" stop-color="#32D4F5"/><stop offset="1" stop-color="#32D4F5"/></linearGradient></defs><g clip-path="url(#clip0)" transform="translate(-81 -73)"><g clip-path="url(#clip1)"><g clip-path="url(#clip2)"><g clip-path="url(#clip3)"><path d="M34.9106 22.0378C34.9106 24.8787 32.6076 27.1817 29.7667 27.1817 26.9258 27.1817 24.6228 24.8787 24.6228 22.0378 24.6228 19.1969 26.9258 16.8939 29.7667 16.8939 32.6076 16.8939 34.9106 19.1969 34.9106 22.0378Z" fill="#FFFFFF" transform="matrix(1 0 0 1.02128 82 322)"/><path d="M42.4306 37.3389C42.4306 39.5741 40.6186 41.3861 38.3833 41.3861 36.1481 41.3861 34.3361 39.5741 34.3361 37.3389 34.3361 35.1037 36.1481 33.2917 38.3833 33.2917 40.6186 33.2917 42.4306 35.1037 42.4306 37.3389Z" fill="#FFFFFF" transform="matrix(1 0 0 1.02128 82 322)"/><path d="M25.85 34.5711C25.85 36.4891 24.2952 38.0439 22.3772 38.0439 20.4593 38.0439 18.9044 36.4891 18.9044 34.5711 18.9044 32.6531 20.4593 31.0983 22.3772 31.0983 24.2952 31.0983 25.85 32.6531 25.85 34.5711Z" fill="#FFFFFF" transform="matrix(1 0 0 1.02128 82 322)"/><path d="M24.1789 8.12056C24.1789 10.5 22.25 12.4289 19.8706 12.4289 17.4911 12.4289 15.5622 10.5 15.5622 8.12055 15.5622 5.74113 17.4911 3.81222 19.8706 3.81222 22.25 3.81222 24.1789 5.74113 24.1789 8.12056Z" fill="#FFFFFF" transform="matrix(1 0 0 1.02128 82 322)"/><path d="M11.8022 23.9961C11.8022 25.9141 10.2474 27.4689 8.32944 27.4689 6.41148 27.4689 4.85667 25.9141 4.85667 23.9961 4.85667 22.0781 6.41148 20.5233 8.32944 20.5233 10.2474 20.5233 11.8022 22.0781 11.8022 23.9961Z" fill="#FFFFFF" transform="matrix(1 0 0 1.02128 82 322)"/><path d="M39.3233 36.5294 30.6283 21.3067 29.7667 21.8028 30.4717 21.2806 20.6278 7.285 18.8261 8.59056 27.5472 20.9933 8.225 22.5861 8.40778 24.8317 27.5472 23.2389 21.2022 33.7878 23.1083 34.9367 29.6361 24.0744 37.3911 37.6261 39.3233 36.5294Z" fill="#949494" transform="matrix(1 0 0 1.02128 82 322)"/><path d="M45.7728 3.21167 45.7728 3.21167C45.7728 2.15895 44.9195 1.30556 43.8667 1.30556L33.9444 1.30556C33.4254 1.30556 33.0044 1.72641 33.0044 2.24556L33.0044 5.92722C33.0044 6.44636 33.4254 6.86722 33.9444 6.86722L40.0806 6.86722 40.0806 12.8728C40.0944 13.4006 40.519 13.8252 41.0467 13.8389L44.7022 13.8389C45.2299 13.8252 45.6545 13.4006 45.6683 12.8728L45.6683 3.21167Z" fill="#949494" transform="matrix(1 0 0 1.02128 82 322)"/><path d="M13.0556 40.1328 6.815 40.1328 6.815 34.1272C6.80129 33.5995 6.37667 33.1749 5.84889 33.1611L2.19333 33.1611C1.66555 33.1749 1.24094 33.5995 1.22722 34.1272L1.22722 43.7883 1.22722 43.7883C1.24151 44.831 2.09073 45.6683 3.13333 45.6683L13.0556 45.6683C13.5747 45.6683 13.9956 45.2474 13.9956 44.7283L13.9956 41.0728C13.9956 40.5537 13.5747 40.1328 13.0556 40.1328Z" fill="#949494" transform="matrix(1 0 0 1.02128 82 322)"/><path d="M29.7667 16.9461C32.6509 16.947 34.9881 19.2858 34.9873 22.17 34.9863 25.0541 32.6475 27.3913 29.7633 27.3906 26.8793 27.3898 24.5419 25.0508 24.5428 22.1667 24.5428 22.1237 24.5434 22.0807 24.5444 22.0378 24.6153 19.2047 26.9328 16.9452 29.7667 16.9461ZM15.6667 8.12056C15.6529 10.5144 17.5824 12.466 19.9762 12.4798 22.37 12.4935 24.3217 10.5641 24.3354 8.17027 24.3491 5.77646 22.4197 3.82476 20.0259 3.81105 19.9828 3.81079 19.9397 3.81118 19.8967 3.81222 17.5479 3.85494 15.6663 5.77139 15.6667 8.12056ZM4.85667 23.97C4.85667 25.888 6.41148 27.4428 8.32944 27.4428 10.2474 27.4428 11.8022 25.888 11.8022 23.97 11.8022 22.052 10.2474 20.4972 8.32944 20.4972 6.41148 20.4972 4.85667 22.052 4.85667 23.97ZM18.9044 34.545C18.89 36.4772 20.4448 38.0554 22.3771 38.07 24.3094 38.0844 25.8876 36.5294 25.902 34.5972 25.9165 32.665 24.3617 31.0868 22.4293 31.0722 22.4207 31.0722 22.412 31.0722 22.4033 31.0722 20.4854 31.0579 18.919 32.6008 18.9045 34.5189 18.9045 34.5275 18.9044 34.5364 18.9044 34.545ZM34.3622 37.3389C34.3479 39.574 36.148 41.3976 38.3833 41.4122 40.6184 41.4266 42.442 39.6262 42.4564 37.3911 42.471 35.156 40.6707 33.3324 38.4356 33.3178 38.4267 33.3178 38.4181 33.3178 38.4094 33.3178 36.2033 33.2888 34.3915 35.0539 34.3625 37.26 34.3622 37.2864 34.362 37.3125 34.3622 37.3389Z" fill="url(#fill4)" transform="matrix(1 0 0 1.02128 82 322)"/></g></g></g><path d="M142.5 343 142.937 343 142.937 350 142.5 350ZM143.375 343 144.25 343 144.25 350 143.375 350ZM144.688 343 282.5 343 282.5 339.5 289.5 346.5 282.5 353.5 282.5 350 144.688 350Z" stroke="#2F528F" stroke-width="1.33333" stroke-miterlimit="8" fill="#4472C4" fill-rule="evenodd"/><g clip-path="url(#clip5)"><g clip-path="url(#clip6)"><g clip-path="url(#clip7)"><path d="M546.314 113.587 544.588 115.318C544.281 115.625 543.784 115.626 543.476 115.319L530.658 102.537C530.044 101.925 530.042 100.931 530.654 100.318L532.388 98.5787 532.388 98.5787 546.32 112.471C546.628 112.778 546.628 113.276 546.322 113.583Z" fill="#50E6FF"/><path d="M544.32 87.6755 546.057 89.4074C546.364 89.7139 546.365 90.2117 546.058 90.5192L532.372 104.245 532.372 104.245 530.633 102.511C530.019 101.899 530.018 100.905 530.63 100.291L543.212 87.6729C543.519 87.3693 544.014 87.3705 544.32 87.6755Z" fill="#1490DF"/><path d="M580.614 98.5907 582.346 100.327C582.958 100.941 582.956 101.935 582.343 102.547L569.524 115.329C569.217 115.636 568.719 115.635 568.412 115.328L566.689 113.599C566.382 113.292 566.383 112.794 566.69 112.487L580.62 98.5969 580.62 98.5969Z" fill="#50E6FF"/><path d="M582.358 102.503 580.621 104.235 580.621 104.235 566.935 90.5096C566.628 90.202 566.629 89.7044 566.936 89.3977L568.673 87.6659C568.98 87.3592 569.478 87.3599 569.785 87.6674L582.367 100.286C582.979 100.899 582.978 101.893 582.364 102.505Z" fill="#1490DF"/><path d="M554.907 104.15 544.339 104.15C544.031 104.162 543.77 103.925 543.751 103.617 543.751 103.54 543.769 103.465 543.804 103.396L556.474 78.3272C556.583 78.129 556.795 78.0087 557.021 78.0151L569.52 78.0151C569.829 78.0033 570.09 78.24 570.109 78.5481 570.108 78.6549 570.072 78.7583 570.006 78.8425L555.128 98.4554 569.638 98.4554C569.947 98.4437 570.208 98.6803 570.227 98.9884 570.225 99.1235 570.17 99.2524 570.074 99.3476L545.962 124.431C545.735 124.567 544.125 125.904 544.914 123.875L544.914 123.875Z" fill="url(#fill8)"/></g></g></g><rect x="311.5" y="74.5001" width="277" height="587" stroke="#2F528F" stroke-width="0.333333" stroke-miterlimit="8" fill="none"/><text fill="#A31515" font-family="MS Gothic,MS Gothic_MSFontService,sans-serif" font-weight="400" font-size="12" transform="translate(320.836 89)">StoreSplittedData</text><path d="M358.5 166.5 405.5 166.5 405.5 202.333 398.333 209.5 358.5 209.5Z" fill="#FFFFFF" fill-rule="evenodd"/><path d="M398.333 209.5 399.767 203.767 405.5 202.333Z" fill="#CDCDCD" fill-rule="evenodd"/><path d="M398.333 209.5 399.767 203.767 405.5 202.333 398.333 209.5 358.5 209.5 358.5 166.5 405.5 166.5 405.5 202.333" stroke="#2F528F" stroke-width="1.33333" stroke-miterlimit="8" fill="none" fill-rule="evenodd"/><text font-family="Yu Gothic,Yu Gothic_MSFontService,sans-serif" font-weight="400" font-size="11" transform="translate(377.069 188)">.0</text><path d="M323.5 188.167 352.113 188.167 352.113 188.833 323.5 188.833ZM350.78 184.5 358.78 188.5 350.78 192.5Z" fill="#4472C4"/><path d="M336.5 173.898C336.5 164.842 343.842 157.5 352.898 157.5L554.102 157.5C563.158 157.5 570.5 164.842 570.5 173.898L570.5 276.102C570.5 285.158 563.158 292.5 554.102 292.5L352.898 292.5C343.842 292.5 336.5 285.158 336.5 276.102Z" stroke="#2F528F" stroke-width="1.33333" stroke-miterlimit="8" fill="none" fill-rule="evenodd"/><g clip-path="url(#clip9)"><g clip-path="url(#clip10)"><g clip-path="url(#clip11)"><path d="M863.314 138.587 861.588 140.318C861.281 140.625 860.784 140.626 860.476 140.319L847.658 127.537C847.044 126.925 847.042 125.931 847.654 125.318L849.388 123.579 849.388 123.579 863.32 137.471C863.628 137.778 863.628 138.276 863.322 138.583Z" fill="#50E6FF"/><path d="M861.32 112.675 863.057 114.407C863.364 114.714 863.365 115.212 863.058 115.519L849.372 129.245 849.372 129.245 847.633 127.511C847.019 126.899 847.018 125.905 847.63 125.291L860.212 112.673C860.519 112.369 861.014 112.371 861.32 112.675Z" fill="#1490DF"/><path d="M897.614 123.591 899.346 125.327C899.958 125.941 899.956 126.935 899.343 127.547L886.524 140.329C886.217 140.636 885.719 140.635 885.412 140.328L883.689 138.599C883.382 138.292 883.383 137.794 883.69 137.487L897.62 123.597 897.62 123.597Z" fill="#50E6FF"/><path d="M899.358 127.503 897.621 129.235 897.621 129.235 883.935 115.51C883.628 115.202 883.629 114.704 883.936 114.398L885.673 112.666C885.98 112.359 886.478 112.36 886.785 112.667L899.367 125.286C899.979 125.899 899.978 126.893 899.364 127.505Z" fill="#1490DF"/><path d="M871.907 129.15 861.339 129.15C861.031 129.162 860.77 128.925 860.751 128.617 860.751 128.54 860.769 128.465 860.804 128.396L873.474 103.327C873.583 103.129 873.795 103.009 874.021 103.015L886.52 103.015C886.829 103.003 887.09 103.24 887.109 103.548 887.108 103.655 887.072 103.758 887.006 103.842L872.128 123.455 886.638 123.455C886.947 123.444 887.208 123.68 887.227 123.988 887.225 124.124 887.17 124.252 887.074 124.348L862.962 149.431C862.735 149.567 861.125 150.904 861.914 148.875L861.914 148.875Z" fill="url(#fill12)"/></g></g></g><rect x="704.5" y="74.5001" width="209" height="169" stroke="#2F528F" stroke-width="0.333333" stroke-miterlimit="8" fill="none"/><text fill="#A31515" font-family="MS Gothic,MS Gothic_MSFontService,sans-serif" font-weight="400" font-size="12" transform="translate(713.208 89)">MergeFragments_HttpStart</text><path d="M731.5 166.334C731.5 161.455 735.455 157.5 740.334 157.5L883.667 157.5C888.545 157.5 892.5 161.455 892.5 166.334L892.5 201.667C892.5 206.545 888.545 210.5 883.667 210.5L740.334 210.5C735.455 210.5 731.5 206.545 731.5 201.667Z" stroke="#2F528F" stroke-width="1.33333" stroke-miterlimit="8" fill="none" fill-rule="evenodd"/><text font-family="Yu Gothic,Yu Gothic_MSFontService,sans-serif" font-weight="400" font-size="13" transform="translate(743.307 172)">dataidの一連のフラグ<tspan font-size="13" x="0" y="16">メントをマージする</tspan><tspan font-size="13" x="0" y="32">Orchestration</tspan><tspan font-size="13" x="83.8334" y="32">を起動</tspan></text><g clip-path="url(#clip13)"><g clip-path="url(#clip14)"><g clip-path="url(#clip15)"><path d="M863.314 326.587 861.588 328.318C861.281 328.625 860.784 328.626 860.476 328.319L847.658 315.537C847.044 314.925 847.042 313.931 847.654 313.318L849.388 311.579 849.388 311.579 863.32 325.471C863.628 325.778 863.628 326.276 863.322 326.583Z" fill="#50E6FF"/><path d="M861.32 300.675 863.057 302.407C863.364 302.714 863.365 303.212 863.058 303.519L849.372 317.245 849.372 317.245 847.633 315.511C847.019 314.899 847.018 313.905 847.63 313.291L860.212 300.673C860.519 300.369 861.014 300.371 861.32 300.675Z" fill="#1490DF"/><path d="M897.614 311.591 899.346 313.327C899.958 313.941 899.956 314.935 899.343 315.547L886.524 328.329C886.217 328.636 885.719 328.635 885.412 328.328L883.689 326.599C883.382 326.292 883.383 325.794 883.69 325.487L897.62 311.597 897.62 311.597Z" fill="#50E6FF"/><path d="M899.358 315.503 897.621 317.235 897.621 317.235 883.935 303.51C883.628 303.202 883.629 302.704 883.936 302.398L885.673 300.666C885.98 300.359 886.478 300.36 886.785 300.667L899.367 313.286C899.979 313.899 899.978 314.893 899.364 315.505Z" fill="#1490DF"/><path d="M871.907 317.15 861.339 317.15C861.031 317.162 860.77 316.925 860.751 316.617 860.751 316.54 860.769 316.465 860.804 316.396L873.474 291.327C873.583 291.129 873.795 291.009 874.021 291.015L886.52 291.015C886.829 291.003 887.09 291.24 887.109 291.548 887.108 291.655 887.072 291.758 887.006 291.842L872.128 311.455 886.638 311.455C886.947 311.444 887.208 311.68 887.227 311.988 887.225 312.124 887.17 312.252 887.074 312.348L862.962 337.431C862.735 337.567 861.125 338.904 861.914 336.875L861.914 336.875Z" fill="url(#fill16)"/></g></g></g><rect x="704.5" y="261.5" width="209" height="169" stroke="#2F528F" stroke-width="0.333333" stroke-miterlimit="8" fill="none"/><text fill="#A31515" font-family="MS Gothic,MS Gothic_MSFontService,sans-serif" font-weight="400" font-size="12" transform="translate(713.208 277)">MergeFragments_NotifyFragment</text><path d="M731.5 353.334C731.5 348.455 735.455 344.5 740.334 344.5L883.667 344.5C888.545 344.5 892.5 348.455 892.5 353.334L892.5 388.667C892.5 393.545 888.545 397.5 883.667 397.5L740.334 397.5C735.455 397.5 731.5 393.545 731.5 388.667Z" stroke="#2F528F" stroke-width="1.33333" stroke-miterlimit="8" fill="none" fill-rule="evenodd"/><text font-family="Yu Gothic,Yu Gothic_MSFontService,sans-serif" font-weight="400" font-size="13" transform="translate(743.307 359)">dataid,instanceid<tspan font-size="13" x="105.333" y="0">に合</tspan><tspan font-size="13" x="0" y="16">致する</tspan>Function<tspan font-size="13" x="93.6667" y="16">にデー</tspan><tspan font-size="13" x="0" y="32">タを</tspan><tspan font-size="13" x="26.6667" y="32">POST</tspan></text><rect x="415.5" y="166.5" width="141" height="58" stroke="#4472C4" stroke-linejoin="round" stroke-miterlimit="10" fill="none"/><text font-family="Yu Gothic,Yu Gothic_MSFontService,sans-serif" font-weight="400" font-size="13" transform="translate(425.082 183)">HttpStart<tspan font-size="13" x="57" y="0">を起動し</tspan><tspan font-size="13" x="0" y="16">dataid</tspan>と<tspan font-size="13" x="51.8333" y="16">instanceid</tspan><tspan font-size="13" x="0" y="32">を紐づける</tspan></text><rect x="416.5" y="233.5" width="141" height="42" stroke="#4472C4" stroke-linejoin="round" stroke-miterlimit="10" fill="none"/><text font-family="Yu Gothic,Yu Gothic_MSFontService,sans-serif" font-weight="400" font-size="13" transform="translate(425.635 250)">Instanceid<tspan font-size="13" x="63.6667" y="0">とデータ</tspan><tspan font-size="13" x="0" y="16">フラグメントを送信</tspan></text><path d="M0-1 88.4944-1 88.4944 11.3264 87.4944 10.3264 168.322 10.3264 168.322 12.3264 86.4944 12.3264 86.4944 0 87.4944 1 0 1ZM166.989 7.3264 174.989 11.3264 166.989 15.3264Z" fill="#4472C4" transform="matrix(1 0 0 -1 556 195.326)"/><path d="M624.5 233.5C633.061 233.5 640 234.657 640 236.083L640 424.917C640 426.343 646.94 427.5 655.5 427.5 646.94 427.5 640 428.657 640 430.083L640 618.917C640 620.343 633.061 621.5 624.5 621.5" stroke="#4472C4" stroke-width="1.33333" stroke-miterlimit="8" fill="none" fill-rule="evenodd"/><path d="M357.5 318.5 404.5 318.5 404.5 354.333 397.333 361.5 357.5 361.5Z" fill="#FFFFFF" fill-rule="evenodd"/><path d="M397.333 361.5 398.767 355.767 404.5 354.333Z" fill="#CDCDCD" fill-rule="evenodd"/><path d="M397.333 361.5 398.767 355.767 404.5 354.333 397.333 361.5 357.5 361.5 357.5 318.5 404.5 318.5 404.5 354.333" stroke="#2F528F" stroke-width="1.33333" stroke-miterlimit="8" fill="none" fill-rule="evenodd"/><text font-family="Yu Gothic,Yu Gothic_MSFontService,sans-serif" font-weight="400" font-size="11" transform="translate(376.319 339)">.1</text><path d="M322.5 340.167 351.113 340.167 351.113 340.833 322.5 340.833ZM349.78 336.5 357.78 340.5 349.78 344.5Z" fill="#4472C4"/><path d="M336.5 322.667C336.5 315.395 342.395 309.5 349.667 309.5L556.333 309.5C563.605 309.5 569.5 315.395 569.5 322.667L569.5 375.333C569.5 382.605 563.605 388.5 556.333 388.5L349.667 388.5C342.395 388.5 336.5 382.605 336.5 375.333Z" stroke="#2F528F" stroke-width="1.33333" stroke-miterlimit="8" fill="none" fill-rule="evenodd"/><rect x="415.5" y="318.5" width="141" height="58" stroke="#4472C4" stroke-linejoin="round" stroke-miterlimit="10" fill="none"/><text font-family="Yu Gothic,Yu Gothic_MSFontService,sans-serif" font-weight="400" font-size="13" transform="translate(425.082 334)">Index, Instanceid<tspan font-size="13" x="104.167" y="0">と</tspan><tspan font-size="13" x="0" y="16">データフラグメント</tspan><tspan font-size="13" x="0" y="32">を送信</tspan></text><path d="M357.5 413.5 404.5 413.5 404.5 450.167 397.167 457.5 357.5 457.5Z" fill="#FFFFFF" fill-rule="evenodd"/><path d="M397.167 457.5 398.633 451.633 404.5 450.167Z" fill="#CDCDCD" fill-rule="evenodd"/><path d="M397.167 457.5 398.633 451.633 404.5 450.167 397.167 457.5 357.5 457.5 357.5 413.5 404.5 413.5 404.5 450.167" stroke="#2F528F" stroke-width="1.33333" stroke-miterlimit="8" fill="none" fill-rule="evenodd"/><text font-family="Yu Gothic,Yu Gothic_MSFontService,sans-serif" font-weight="400" font-size="11" transform="translate(376.319 435)">.2</text><path d="M322.5 435.167 351.113 435.167 351.113 435.833 322.5 435.833ZM349.78 431.5 357.78 435.5 349.78 439.5Z" fill="#4472C4"/><path d="M336.5 418.667C336.5 411.395 342.395 405.5 349.667 405.5L556.333 405.5C563.605 405.5 569.5 411.395 569.5 418.667L569.5 471.333C569.5 478.605 563.605 484.5 556.333 484.5L349.667 484.5C342.395 484.5 336.5 478.605 336.5 471.333Z" stroke="#2F528F" stroke-width="1.33333" stroke-miterlimit="8" fill="none" fill-rule="evenodd"/><rect x="415.5" y="413.5" width="141" height="58" stroke="#4472C4" stroke-linejoin="round" stroke-miterlimit="10" fill="none"/><text font-family="Yu Gothic,Yu Gothic_MSFontService,sans-serif" font-weight="400" font-size="13" transform="translate(425.082 430)">Index, Instanceid<tspan font-size="13" x="104.167" y="0">と</tspan><tspan font-size="13" x="0" y="16">データフラグメント</tspan><tspan font-size="13" x="0" y="32">を送信</tspan></text><path d="M357.5 551.5 404.5 551.5 404.5 587.333 397.333 594.5 357.5 594.5Z" fill="#FFFFFF" fill-rule="evenodd"/><path d="M397.333 594.5 398.767 588.767 404.5 587.333Z" fill="#CDCDCD" fill-rule="evenodd"/><path d="M397.333 594.5 398.767 588.767 404.5 587.333 397.333 594.5 357.5 594.5 357.5 551.5 404.5 551.5 404.5 587.333" stroke="#2F528F" stroke-width="1.33333" stroke-miterlimit="8" fill="none" fill-rule="evenodd"/><text font-family="Yu Gothic,Yu Gothic_MSFontService,sans-serif" font-weight="400" font-size="11" transform="translate(375.319 573)">.<tspan font-style="oblique" font-size="11" x="2.83334" y="0">N</tspan></text><path d="M322.5 573.167 351.113 573.167 351.113 573.833 322.5 573.833ZM349.78 569.5 357.78 573.5 349.78 577.5Z" fill="#4472C4"/><path d="M336.5 555.667C336.5 548.395 342.395 542.5 349.667 542.5L556.333 542.5C563.605 542.5 569.5 548.395 569.5 555.667L569.5 608.333C569.5 615.605 563.605 621.5 556.333 621.5L349.667 621.5C342.395 621.5 336.5 615.605 336.5 608.333Z" stroke="#2F528F" stroke-width="1.33333" stroke-miterlimit="8" fill="none" fill-rule="evenodd"/><rect x="415.5" y="551.5" width="141" height="58" stroke="#4472C4" stroke-linejoin="round" stroke-miterlimit="10" fill="none"/><text font-family="Yu Gothic,Yu Gothic_MSFontService,sans-serif" font-weight="400" font-size="13" transform="translate(425.082 568)">Index, Instanceid<tspan font-size="13" x="104.167" y="0">と</tspan><tspan font-size="13" x="0" y="16">データフラグメント</tspan><tspan font-size="13" x="0" y="32">を送信</tspan></text><path d="M452 484 452 542.233" stroke="#4472C4" stroke-width="8" stroke-miterlimit="8" stroke-dasharray="8 8" fill="none" fill-rule="evenodd"/><path d="M556 346 617.567 346 617.567 348 556 348ZM616.233 343 624.233 347 616.233 351Z" fill="#4472C4"/><path d="M556 441 617.212 441 617.212 443 556 443ZM615.878 438 623.878 442 615.878 446Z" fill="#4472C4"/><path d="M1.54669e-06-1 61.2116-0.999905 61.2116 1.00009-1.54669e-06 1ZM59.8782-3.99991 67.8782 0.000104987 59.8782 4.00009Z" fill="#4472C4" transform="matrix(1 0 0 -1 556 580)"/><path d="M0.000557823-1 58.8304-0.967183 58.8293 1.03282-0.000557823 1ZM57.4987-3.96793 65.4965 0.0365354 57.4943 4.03207Z" fill="#4472C4" transform="matrix(1 0 0 -1 557 254.037)"/><path d="M0-1 22.2484-1 22.2484 58.6877 21.2403 57.6878 69.5337 57.296 69.5499 59.296 20.2484 59.6959 20.2484 0 21.2484 1 0 1ZM67.0921 54.8643 75.9142 56.3373 69.4425 62.5112Z" fill="#4472C4" transform="matrix(1 -1.22465e-16 -1.22465e-16 -1 655 427.337)"/><g clip-path="url(#clip17)"><g clip-path="url(#clip18)"><g clip-path="url(#clip19)"><path d="M1211.31 112.587 1209.59 114.318C1209.28 114.625 1208.78 114.626 1208.48 114.319L1195.66 101.537C1195.04 100.925 1195.04 99.9313 1195.65 99.3176L1197.39 97.5787 1197.39 97.5787 1211.32 111.471C1211.63 111.778 1211.63 112.276 1211.32 112.583Z" fill="#50E6FF"/><path d="M1209.32 86.6755 1211.06 88.4074C1211.36 88.7139 1211.36 89.2117 1211.06 89.5192L1197.37 103.245 1197.37 103.245 1195.63 101.511C1195.02 100.899 1195.02 99.905 1195.63 99.2912L1208.21 86.6729C1208.52 86.3693 1209.01 86.3705 1209.32 86.6755Z" fill="#1490DF"/><path d="M1245.61 97.5907 1247.35 99.3274C1247.96 99.9413 1247.96 100.935 1247.34 101.547L1234.52 114.329C1234.22 114.636 1233.72 114.635 1233.41 114.328L1231.69 112.599C1231.38 112.292 1231.38 111.794 1231.69 111.487L1245.62 97.5969 1245.62 97.5969Z" fill="#50E6FF"/><path d="M1247.36 101.503 1245.62 103.235 1245.62 103.235 1231.93 89.5096C1231.63 89.202 1231.63 88.7044 1231.94 88.3977L1233.67 86.6659C1233.98 86.3592 1234.48 86.3599 1234.78 86.6674L1247.37 99.2857C1247.98 99.8995 1247.98 100.893 1247.36 101.505Z" fill="#1490DF"/><path d="M1219.91 103.15 1209.34 103.15C1209.03 103.162 1208.77 102.925 1208.75 102.617 1208.75 102.54 1208.77 102.465 1208.8 102.396L1221.47 77.3272C1221.58 77.129 1221.79 77.0087 1222.02 77.0151L1234.52 77.0151C1234.83 77.0033 1235.09 77.24 1235.11 77.5481 1235.11 77.6549 1235.07 77.7583 1235.01 77.8425L1220.13 97.4554 1234.64 97.4554C1234.95 97.4437 1235.21 97.6803 1235.23 97.9884 1235.22 98.1235 1235.17 98.2524 1235.07 98.3476L1210.96 123.431C1210.74 123.567 1209.12 124.904 1209.91 122.875L1209.91 122.875Z" fill="url(#fill20)"/></g></g></g><rect x="969.5" y="74.5001" width="284" height="490" stroke="#2F528F" stroke-width="0.333333" stroke-miterlimit="8" fill="none"/><text fill="#A31515" font-family="MS Gothic,MS Gothic_MSFontService,sans-serif" font-weight="400" font-size="12" transform="translate(978.364 90)">MergeFragments<tspan fill="#000000" font-family="Yu Gothic,Yu Gothic_MSFontService,sans-serif" font-size="12" x="0" y="13">&lt;&lt;</tspan><tspan fill="#000000" font-family="Yu Gothic,Yu Gothic_MSFontService,sans-serif" font-size="12" x="17.3333" y="13">instanceid</tspan><tspan fill="#000000" font-family="Yu Gothic,Yu Gothic_MSFontService,sans-serif" font-size="12" x="74.4999" y="13">&gt;&gt;</tspan></text><path d="M987.5 148.334C987.5 144.007 991.007 140.5 995.334 140.5L1227.67 140.5C1231.99 140.5 1235.5 144.007 1235.5 148.334L1235.5 179.666C1235.5 183.993 1231.99 187.5 1227.67 187.5L995.334 187.5C991.007 187.5 987.5 183.993 987.5 179.666Z" stroke="#2F528F" stroke-width="1.33333" stroke-miterlimit="8" fill="none" fill-rule="evenodd"/><text font-family="Yu Gothic,Yu Gothic_MSFontService,sans-serif" font-weight="400" font-size="13" transform="translate(999.276 168)">マージ用<tspan font-size="13" x="53.3334" y="0">の</tspan><tspan font-size="13" x="66.6667" y="0">Memory</tspan><tspan font-size="13" x="120.667" y="0">Stream</tspan><tspan font-size="13" x="165" y="0">を初期化</tspan></text><path d="M0-1 48.9529-1 48.9529 67.1449 47.9529 66.1449 219.475 66.1449 218.475 67.1449 218.475 49.8117 220.475 49.8117 220.475 68.1449 46.9529 68.1449 46.9529 0 47.9529 1 0 1ZM215.475 51.145 219.475 43.145 223.475 51.145Z" fill="#4472C4" transform="matrix(1 0 0 -1 892 183.145)"/><path d="M1090.5 268.5 1111.5 258.5 1132.5 268.5 1111.5 278.5Z" stroke="#2F528F" stroke-width="1.33333" stroke-miterlimit="8" fill="#4472C4" fill-rule="evenodd"/><text fill="#FFFFFF" font-family="Yu Gothic,Yu Gothic_MSFontService,sans-serif" font-weight="400" font-size="11" transform="translate(1105.66 272)">Ｗ</text><path d="M0-1 54.7886-1 54.7886 102.51 53.7886 101.51 191.406 101.51 191.406 103.51 52.7886 103.51 52.7886 0 53.7886 1 0 1ZM190.073 98.5103 198.073 102.51 190.073 106.51Z" fill="#4472C4" transform="matrix(1 0 0 -1 892 370.51)"/><path d="M1014.5 299.167C1014.5 294.933 1017.93 291.5 1022.17 291.5L1198.83 291.5C1203.07 291.5 1206.5 294.933 1206.5 299.167L1206.5 329.833C1206.5 334.068 1203.07 337.5 1198.83 337.5L1022.17 337.5C1017.93 337.5 1014.5 334.068 1014.5 329.833Z" stroke="#2F528F" stroke-width="1.33333" stroke-miterlimit="8" fill="none" fill-rule="evenodd"/><text font-family="Yu Gothic,Yu Gothic_MSFontService,sans-serif" font-weight="400" font-size="13" transform="translate(1025.4 310)">Memory Stream<tspan font-size="13" x="98.3334" y="0">にデータを</tspan><tspan font-size="13" x="0" y="16">追加</tspan></text><path d="M1-1.46062e-06 1.0001 69.8981-0.999898 69.8981-1 1.46062e-06ZM5.53054 62.402 0.000104971 71.8827-5.53035 62.402C-5.80864 61.9249-5.6475 61.3126-5.17045 61.0343-4.6934 60.7561-4.08108 60.9172-3.8028 61.3942L0.86388 69.3942-0.863678 69.3942 3.80298 61.3942C4.08126 60.9172 4.69357 60.756 5.17063 61.0343 5.64768 61.3126 5.80882 61.9249 5.53054 62.402Z" fill="#4472C4" transform="matrix(-1 0 0 1 1111 187)"/><path d="M0.994605-0.103736 2.11876 10.6746 0.129552 10.882-0.994605 0.103736ZM5.84715 2.7489 1.33003 12.7522-5.15407 3.89631C-5.48033 3.4507-5.38358 2.82497-4.93797 2.49871-4.49236 2.17244-3.86663 2.26919-3.54037 2.7148L1.93101 10.1875 0.212769 10.3667 4.02437 1.92581C4.25167 1.42246 4.84396 1.19868 5.34731 1.42597 5.85066 1.65326 6.07444 2.24556 5.84715 2.7489Z" fill="#4472C4" transform="matrix(-1 0 0 1 1111.33 278)"/><path d="M1090.5 360.5 1111.5 350.5 1132.5 360.5 1111.5 370.5Z" stroke="#2F528F" stroke-width="1.33333" stroke-miterlimit="8" fill="none" fill-rule="evenodd"/><path d="M1110.99 336.9 1112.13 348.175 1110.14 348.375 1109.01 337.1ZM1115.89 340.264 1111.33 350.25 1104.88 341.369C1104.56 340.922 1104.65 340.296 1105.1 339.972 1105.55 339.647 1106.17 339.747 1106.5 340.193L1111.94 347.687 1110.22 347.86 1114.07 339.434C1114.3 338.931 1114.89 338.71 1115.39 338.939 1115.89 339.168 1116.12 339.762 1115.89 340.264Z" fill="#4472C4"/><text font-family="Yu Gothic,Yu Gothic_MSFontService,sans-serif" font-weight="400" font-size="13" transform="translate(986.858 365)">?index+1==total</text><rect x="984.5" y="413.5" width="250" height="116" stroke="#2F528F" stroke-width="0.333333" stroke-miterlimit="8" fill="none"/><text fill="#A31515" font-family="MS Gothic,MS Gothic_MSFontService,sans-serif" font-weight="400" font-size="12" transform="translate(993.563 430)">MergeFragment_Upload<tspan fill="#000000" font-family="Yu Gothic,Yu Gothic_MSFontService,sans-serif" font-size="12" x="0" y="13">&lt;&lt;</tspan><tspan fill="#000000" font-family="Yu Gothic,Yu Gothic_MSFontService,sans-serif" font-size="12" x="17.3333" y="13">instanceid</tspan><tspan fill="#000000" font-family="Yu Gothic,Yu Gothic_MSFontService,sans-serif" font-size="12" x="74.4999" y="13">&gt;&gt;</tspan></text><g clip-path="url(#clip21)"><g clip-path="url(#clip22)"><g clip-path="url(#clip23)"><path d="M7.04306 22.2139 9.50961 22.2139C9.94783 22.2139 10.3031 22.5691 10.3031 23.0073L10.3031 41.2777C10.3031 42.1525 9.59392 42.8616 8.71913 42.8616L6.24068 42.8616 6.24068 42.8616 6.24068 23.0043C6.24068 22.5661 6.59593 22.2109 7.03414 22.2109Z" fill="#50E6FF" transform="matrix(-0.699617 0.714836 -0.701599 -0.712817 1213.83 466.115)"/><path d="M6.90969 10.6989 9.38529 10.6989C9.82353 10.6989 10.1788 11.0541 10.1788 11.4924L10.1788 31.0565 10.1788 31.0565 7.70022 31.0565C6.82538 31.0565 6.11619 30.3474 6.11619 29.4724L6.11619 11.4864C6.11946 11.0505 6.47377 10.6989 6.90969 10.6989Z" fill="#1490DF" transform="matrix(0.701562 0.71278 -0.69958 0.714799 1193.96 416.342)"/><path d="M43.1796 22.2139 45.6551 22.2139C46.5299 22.2139 47.239 22.923 47.239 23.7978L47.239 42.0681C47.239 42.5065 46.8839 42.8616 46.4455 42.8616L43.982 42.8616C43.5436 42.8616 43.1885 42.5065 43.1885 42.0681L43.1885 22.2139 43.1885 22.2139Z" fill="#50E6FF" transform="matrix(0.699617 0.714836 -0.701599 0.712817 1212.99 393.335)"/><path d="M44.8996 10.6989 47.3752 10.6989 47.3752 10.6989 47.3752 30.263C47.3752 30.7013 47.0201 31.0565 46.5817 31.0565L44.1061 31.0565C43.6678 31.0565 43.3126 30.7013 43.3126 30.263L43.3126 12.277C43.3126 11.4021 44.0217 10.6929 44.8967 10.6929Z" fill="#1490DF" transform="matrix(-0.701562 0.71278 -0.69958 -0.714799 1268.34 419.666)"/><path d="M24.9071 29.15 14.3394 29.15C14.031 29.1618 13.7695 28.9252 13.7506 28.6171 13.7506 28.5403 13.7688 28.4647 13.8036 28.3962L26.4735 3.32722C26.5834 3.12903 26.7947 3.00866 27.0212 3.01511L39.5203 3.01511C39.8289 3.00333 40.0904 3.23995 40.1092 3.54806 40.108 3.65485 40.0718 3.75835 40.0062 3.8425L25.1279 23.4554 39.6381 23.4554C39.9467 23.4437 40.2082 23.6803 40.227 23.9884 40.2246 24.1235 40.1699 24.2524 40.0739 24.3476L15.9618 49.4313C15.7351 49.5668 14.1245 50.9036 14.9136 48.8748L14.9136 48.8748Z" fill="url(#fill24)" transform="matrix(1 0 0 1.01887 1177 416)"/></g></g></g><path d="M1014.5 475.167C1014.5 470.933 1017.93 467.5 1022.17 467.5L1198.83 467.5C1203.07 467.5 1206.5 470.933 1206.5 475.167L1206.5 505.833C1206.5 510.068 1203.07 513.5 1198.83 513.5L1022.17 513.5C1017.93 513.5 1014.5 510.068 1014.5 505.833Z" stroke="#2F528F" stroke-width="1.33333" stroke-miterlimit="8" fill="none" fill-rule="evenodd"/><text font-family="Yu Gothic,Yu Gothic_MSFontService,sans-serif" font-weight="400" font-size="13" transform="translate(1025.4 486)">Memory Stream<tspan font-size="13" x="98.3334" y="0">の内容を</tspan><tspan font-size="13" x="0" y="16">Blob</tspan><tspan font-size="13" x="27.6667" y="16">として保存</tspan></text><path d="M1132.4 358.612 1246.29 358.612 1245.29 359.612 1245.29 243.783 1246.29 244.783 1111 244.783 1112 243.783 1112 256.02 1110 256.02 1110 242.783 1247.29 242.783 1247.29 360.612 1132.4 360.612ZM1116.53 248.524 1111 258.005 1105.47 248.524C1105.19 248.047 1105.35 247.435 1105.83 247.156 1106.31 246.878 1106.92 247.039 1107.2 247.516L1111.86 255.516 1110.14 255.516 1114.8 247.516C1115.08 247.039 1115.69 246.878 1116.17 247.156 1116.65 247.435 1116.81 248.047 1116.53 248.524Z" fill="#4472C4"/><text font-family="Yu Gothic,Yu Gothic_MSFontService,sans-serif" font-weight="400" font-size="13" transform="translate(1133.97 357)">no</text><path d="M0.999906-0.0137108 2.30221 94.9612 0.302396 94.9886-0.999906 0.0137108ZM6.72945 87.4036 1.32951 96.9593-4.3304 87.5552C-4.6152 87.082-4.46247 86.4676-3.98928 86.1828-3.51609 85.898-2.90162 86.0507-2.61682 86.5239L2.15909 94.4592 0.431695 94.4828 4.98824 86.4196C5.25995 85.9388 5.87 85.7693 6.35082 86.041 6.83165 86.3127 7.00116 86.9228 6.72945 87.4036Z" fill="#4472C4" transform="matrix(-1 0 0 1 1111.33 370)"/><text font-family="Yu Gothic,Yu Gothic_MSFontService,sans-serif" font-weight="400" font-size="13" transform="translate(1117.19 388)">yes</text><g clip-path="url(#clip25)"><g clip-path="url(#clip26)"><g clip-path="url(#clip27)"><path d="M1.47222 17.0424 51.5278 17.0424 51.5278 17.0424 51.5278 44.9499C51.5278 45.8736 50.779 46.6223 49.8553 46.6223L3.14467 46.6223C2.221 46.6223 1.47222 45.8736 1.47222 44.9499L1.47222 17.0424 1.47222 17.0424Z" fill="url(#fill28)" transform="matrix(1 0 0 1.01887 1082 586)"/><path d="M3.1535 6.37767 49.8465 6.37767C50.7702 6.37767 51.5189 7.12644 51.5189 8.05011L51.5189 17.0424 51.5189 17.0424 1.47222 17.0424 1.47222 17.0424 1.47222 8.05011C1.47221 7.12644 2.22098 6.37767 3.14464 6.37764 3.14758 6.37764 3.15056 6.37764 3.1535 6.37767Z" fill="#0078D4" transform="matrix(1 0 0 1.01887 1082 586)"/><path d="M24.5154 20.7554C24.9757 20.7554 25.3487 21.1285 25.3487 21.5887L25.3487 29.9568C25.3487 30.417 24.9757 30.7901 24.5154 30.7901L7.68795 30.7901C7.22774 30.7901 6.85467 30.417 6.85467 29.9568L6.85467 21.5887C6.85467 21.1285 7.22774 20.7554 7.68795 20.7554Z" fill="#0078D4" transform="matrix(1 0 0 1.01887 1082 586)"/><path d="M45.1501 20.7554C45.6103 20.7554 45.9834 21.1285 45.9834 21.5887L45.9834 29.9568C45.9834 30.417 45.6103 30.7901 45.1501 30.7901L28.3226 30.7901C27.8624 30.7901 27.4893 30.417 27.4893 29.9568L27.4893 21.5887C27.4893 21.1285 27.8624 20.7554 28.3226 20.7554Z" fill="#FFFFFF" transform="matrix(1 0 0 1.01887 1082 586)"/><path d="M24.4212 32.7658C24.8814 32.7658 25.2545 33.1388 25.2545 33.5991L25.2545 41.9672C25.2545 42.4274 24.8814 42.8004 24.4212 42.8004L7.59372 42.8004C7.13351 42.8004 6.76044 42.4274 6.76044 41.9672L6.76044 33.5991C6.76044 33.1388 7.13351 32.7658 7.59372 32.7658Z" fill="#0078D4" transform="matrix(1 0 0 1.01887 1082 586)"/><path d="M45.0559 32.7658C45.5161 32.7658 45.8892 33.1388 45.8892 33.5991L45.8892 41.9672C45.8892 42.4274 45.5161 42.8004 45.0559 42.8004L28.2284 42.8004C27.7682 42.8004 27.3951 42.4274 27.3951 41.9672L27.3951 33.5991C27.3951 33.1388 27.7682 32.7658 28.2284 32.7658Z" fill="#0078D4" transform="matrix(1 0 0 1.01887 1082 586)"/></g></g></g><path d="M0.99994-0.0109271 1.72835 66.646-0.271528 66.6678-0.99994 0.0109271ZM4.7136 65.2799 0.80126 73.3232-3.28592 65.3673Z" fill="#4472C4" transform="matrix(-1 0 0 1 1109.8 513)"/><text font-family="Yu Gothic,Yu Gothic_MSFontService,sans-serif" font-weight="400" font-size="13" transform="translate(114.852 314)">分割<tspan font-size="13" x="26.6667" y="0">されたデータフラグメント</tspan></text></g></svg>